<?xml version="1.0" encoding="UTF-8"?>
<svg width="14px" height="14px" viewBox="0 0 14 14" version="1.1" xmlns="http://www.w3.org/2000/svg" xmlns:xlink="http://www.w3.org/1999/xlink">
    <g id="3.6_Gallery_Edit-Multiple_Apply-to-All-" stroke="none" stroke-width="1" fill="none" fill-rule="evenodd">
        <g id="04.1.9_Upload-Asset-Copy-73" transform="translate(-624.000000, -229.000000)" fill="#586274" fill-rule="nonzero">
            <g id="-copy" transform="translate(624.000000, 229.000000)">
                <path d="M12.6456456,11 C13.02002,11 13.3393393,10.8623624 13.6036036,10.5870871 C13.8678679,10.3118118 14,9.98698699 14,9.61261261 L14,9.61261261 L14,1.35435435 C14,0.97997998 13.8678679,0.660660661 13.6036036,0.396396396 C13.3393393,0.132132132 13.02002,0 12.6456456,0 L12.6456456,0 L4.38738739,0 C4.01301301,0 3.68818819,0.132132132 3.41291291,0.396396396 C3.13763764,0.660660661 3,0.97997998 3,1.35435435 L3,1.35435435 L3,9.61261261 C3,9.98698699 3.13763764,10.3118118 3.41291291,10.5870871 C3.68818819,10.8623624 4.01301301,11 4.38738739,11 L4.38738739,11 L12.6456456,11 Z M9.20673077,9 L7.79326923,9 L7.79326923,6.20673077 L5,6.20673077 L5,4.79326923 L7.79326923,4.79326923 L7.79326923,2 L9.20673077,2 L9.20673077,4.79326923 L12,4.79326923 L12,6.20673077 L9.20673077,6.20673077 L9.20673077,9 Z M11,14 L11,12.6456456 L1.35435435,12.6456456 L1.35435435,3 L0,3 L0,12.6456456 C0,13.02002 0.132132132,13.3393393 0.396396396,13.6036036 C0.660660661,13.8678679 0.97997998,14 1.35435435,14 L1.35435435,14 L11,14 Z"></path>
            </g>
        </g>
    </g>
</svg>
