<svg xmlns="http://www.w3.org/2000/svg" width="20" height="21" viewBox="0 0 20 21">
    <path fill="#007D1B" d="M11.875.5c.166 0 .326.064.444.181l3.75 3.75c.117.118.182.278.181.444v2.5H15V5.5h-2.5c-.69 0-1.25-.56-1.25-1.25v-2.5H1.875c-.345 0-.625.28-.625.625v16.25c0 .345.28.625.625.625H6.25v1.25H1.875C.839 20.5 0 19.66 0 18.625V2.375C0 1.34.84.5 1.875.5zm.625 10c1.036 0 1.875.84 1.875 1.875h-1.25c0-.345-.28-.625-.625-.625h-1.25c-.345 0-.625.28-.625.625s.28.625.625.625h1.25c1.036 0 1.875.84 1.875 1.875 0 1.036-.84 1.875-1.875 1.875h-1.25c-1.036 0-1.875-.84-1.875-1.875h1.25c0 .345.28.625.625.625h1.25c.345 0 .625-.28.625-.625s-.28-.625-.625-.625h-1.25c-1.036 0-1.875-.84-1.875-1.875 0-1.036.84-1.875 1.875-1.875zm-6.25 0c1.38 0 2.5 1.12 2.5 2.5H7.5c0-.69-.56-1.25-1.25-1.25S5 12.31 5 13v1.25c0 .69.56 1.25 1.25 1.25s1.25-.56 1.25-1.25h1.25c0 1.38-1.12 2.5-2.5 2.5s-2.5-1.12-2.5-2.5V13c0-1.38 1.12-2.5 2.5-2.5zm10 0v3.75c0 .675.95 1.25 1.25 1.25.3 0 1.25-.575 1.25-1.25V10.5H20v3.75c0 1.381-1.512 2.5-2.5 2.5-.987 0-2.5-1.119-2.5-2.5V10.5h1.25z"/>
</svg>
