<svg xmlns="http://www.w3.org/2000/svg" width="32" height="35" viewBox="0 0 32 35">
    <g fill="#209E59" fill-rule="evenodd">
        <path d="M21.886 14.728V9.021c0-1.163-.945-2.097-2.1-2.097H2.097C.934 6.924 0 7.858 0 9.02v5.707c0 1.163.934 2.1 2.097 2.1h17.681c1.163 0 2.108-.937 2.108-2.1zm-15.94-1.143c.458 0 .805-.069 1.095-.188l.226 1.412c-.336.148-.972.278-1.708.278-1.99 0-3.263-1.214-3.263-3.151 0-1.79 1.235-3.261 3.53-3.261.497 0 1.054.079 1.451.237l-.297 1.412c-.23-.099-.565-.188-1.064-.188-1.013 0-1.66.715-1.65 1.728 0 1.136.756 1.721 1.68 1.721zm4.017 1.502c-.804 0-1.522-.178-1.988-.428l.338-1.372c.357.209 1.082.469 1.65.469.578 0 .814-.21.814-.52 0-.318-.188-.465-.903-.705-1.263-.427-1.76-1.122-1.741-1.848 0-1.145.975-2.008 2.497-2.008.725 0 1.362.158 1.738.346l-.336 1.324c-.28-.16-.807-.36-1.333-.36-.466 0-.736.19-.736.507 0 .29.24.438.995.708 1.174.397 1.66.993 1.67 1.899 0 1.143-.906 1.988-2.665 1.988zm7.328-.13h-1.919l-2.237-6.155h2.08l.824 2.854c.158.519.267 1.015.356 1.501h.041c.1-.506.199-.974.339-1.501l.794-2.854h2.008l-2.286 6.155z"/>
        <path d="M30.535.56H7.705c-.486 0-.873.387-.873.876V5.61h2.614V2.747h19.21V23.29h-5.21c-.26 0-.506.1-.687.288-.178.178-.288.427-.288.687l.02 6.511H9.447V18.101H6.832v14.12c0 .475.387.872.873.872H24.73c.247 0 .486-.109.657-.297l5.796-6.494c.15-.158.219-.366.219-.575V1.436c.01-.49-.387-.876-.866-.876z"/>
    </g>
</svg>
