<?xml version="1.0" encoding="utf-8"?>
<!-- Generator: Adobe Illustrator 18.1.1, SVG Export Plug-In . SVG Version: 6.00 Build 0)  -->
<!DOCTYPE svg PUBLIC "-//W3C//DTD SVG 1.1//EN" "http://www.w3.org/Graphics/SVG/1.1/DTD/svg11.dtd">
<svg version="1.1" id="Layer_1" xmlns="http://www.w3.org/2000/svg" xmlns:xlink="http://www.w3.org/1999/xlink" x="0px" y="0px"
	 width="44px" height="44px" viewBox="0 0 32 32" enable-background="new 0 0 36 36" xml:space="preserve">
<path d="M27,8c-1.3,0-2.4,0.8-2.8,2H19V8h-6v2H7.8C7.4,8.8,6.3,8,5,8c-1.7,0-3,1.3-3,3s1.3,3,3,3c1.3,0,2.4-0.8,2.8-2h2.5
	c-1.8,1.5-3,3.6-3.3,6H5v6h6v-6H9.1c0.3-2.4,1.8-4.3,3.9-5.3V14h6v-1.3c2.1,1,3.6,3,3.9,5.3H21v6h6v-6h-2.1c-0.3-2.4-1.5-4.5-3.3-6
	h2.5c0.4,1.2,1.5,2,2.8,2c1.7,0,3-1.3,3-3C30,9.3,28.7,8,27,8z M9,22H7v-2h2V22z M17,12h-2v-2h2V12z M23,20h2v2h-2V20z"/>
</svg>
