<svg xmlns="http://www.w3.org/2000/svg" width="40" height="35" viewBox="0 0 40 35">
    <g fill="none" fill-rule="evenodd">
        <path fill="#653F84" d="M30.535.56H7.705c-.486 0-.873.387-.873.876V5.61h2.614V2.747h19.21V23.29h-5.21c-.26 0-.506.1-.687.288-.178.178-.288.427-.288.687l.02 6.511H9.447V18.101H6.832v14.12c0 .475.387.872.873.872H24.73c.247 0 .486-.109.657-.297l5.796-6.494c.15-.158.219-.366.219-.575V1.436c.01-.49-.387-.876-.866-.876z"/>
        <path fill="#FFF" d="M28 7.636H31.818V15.272H28z"/>
        <path fill="#653F84" d="M37.455 6.924c1.104 0 2 .895 2 2v5.901c0 1.105-.896 2-2 2H2c-1.105 0-2-.895-2-2V8.924c0-1.105.895-2 2-2h35.455zm-23.246 2.23c-.504 0-.964.118-1.379.355-.415.236-.743.565-.985.985-.242.42-.362.894-.362 1.424 0 .53.12 1.005.362 1.428.242.422.57.752.985.989.415.236.875.355 1.379.355s.963-.119 1.378-.355c.415-.237.743-.567.985-.99.242-.422.363-.898.363-1.427 0-.53-.12-1.004-.359-1.424-.24-.42-.566-.749-.981-.985-.415-.237-.877-.356-1.386-.356zm6.788.083h-1.305v3.689c0 .387-.166.58-.497.58-.347 0-.536-.208-.568-.625l-.004-.13h-1.291c0 .625.173 1.105.52 1.439.345.333.814.5 1.404.5.545 0 .971-.153 1.28-.458.273-.272.425-.646.456-1.123l.005-.183V9.237zm2.612-.084c-.372 0-.701.063-.989.188-.287.124-.513.304-.676.538-.163.234-.244.512-.244.832 0 .346.078.628.233.844.155.216.341.38.557.489.217.11.495.223.837.34.234.081.417.151.55.21.132.058.242.133.332.225.089.092.133.206.133.344 0 .152-.048.274-.145.366-.097.092-.229.138-.397.138-.193 0-.353-.059-.477-.176-.1-.094-.166-.215-.2-.364l-.018-.117h-1.39c.036.53.25.942.642 1.237.392.295.89.443 1.496.443.403 0 .745-.071 1.028-.214.282-.143.496-.333.641-.573.145-.239.218-.501.218-.786 0-.352-.08-.637-.237-.856-.158-.218-.346-.385-.565-.5-.22-.114-.502-.23-.848-.347-.24-.087-.422-.158-.55-.214-.127-.056-.233-.129-.317-.218-.084-.089-.126-.197-.126-.324 0-.158.048-.278.142-.36.094-.08.217-.121.37-.121.178 0 .32.052.424.156.083.084.142.19.175.322l.02.102h1.412c-.045-.499-.245-.89-.6-1.176-.353-.285-.83-.428-1.43-.428zm5.422 0c-.504 0-.964.119-1.378.356-.415.236-.744.565-.986.985-.241.42-.362.894-.362 1.424 0 .53.12 1.005.362 1.428.242.422.57.752.986.989.414.236.874.355 1.378.355.504 0 .963-.119 1.378-.355.415-.237.744-.567.985-.99.242-.422.363-.898.363-1.427 0-.53-.12-1.004-.359-1.424-.24-.42-.566-.749-.981-.985-.415-.237-.877-.356-1.386-.356zm-24.78.031c-.54 0-1.012.116-1.417.347-.404.232-.717.557-.939.974-.221.418-.332.894-.332 1.428 0 .535.11 1.01.332 1.428.222.418.536.742.943.974.407.231.883.347 1.428.347.448 0 .847-.084 1.195-.252.349-.168.635-.387.86-.657.179-.215.319-.446.42-.691l.068-.187v-1.29H4.068v.939h1.65c-.098.316-.263.559-.497.73-.234.17-.507.255-.817.255-.484 0-.857-.137-1.12-.412-.261-.275-.392-.67-.392-1.184 0-.473.124-.849.374-1.126.25-.278.58-.416.993-.416.264 0 .49.057.68.171.15.092.27.209.358.351l.061.111H6.74c-.107-.565-.379-1.013-.817-1.344-.438-.33-.995-.496-1.672-.496zm6.651.053h-3.36v5.4h3.36V13.59H8.848v-1.199h1.825v-.985H8.848v-1.13h2.054V9.237zm22.894 0H32.49v5.4h1.306v-3.315l2.184 3.314h1.306V9.237H35.98v3.345l-2.184-3.345zm-19.587 1.13c.427 0 .767.14 1.02.42.251.28.377.657.377 1.13 0 .474-.127.851-.382 1.131-.254.28-.593.42-1.015.42-.428 0-.768-.14-1.02-.42-.252-.28-.378-.657-.378-1.13 0-.479.126-.857.378-1.134.252-.278.592-.416 1.02-.416zm14.822 0c.428 0 .767.14 1.02.42.251.28.377.657.377 1.13 0 .474-.127.851-.381 1.131-.255.28-.594.42-1.016.42-.428 0-.768-.14-1.02-.42-.252-.28-.378-.657-.378-1.13 0-.479.126-.857.378-1.134.252-.278.592-.416 1.02-.416z"/>
    </g>
</svg>
