<?xml version="1.0" encoding="UTF-8"?>
<svg width="20px" height="20px" viewBox="0 0 20 20" version="1.1" xmlns="http://www.w3.org/2000/svg" xmlns:xlink="http://www.w3.org/1999/xlink">
    <title>ic / file / IMG Copy 3</title>
    <g id="ic-/-file-/-IMG-Copy-3" stroke="none" stroke-width="1" fill="none" fill-rule="evenodd">
        <g id="Group" transform="translate(2.000000, 2.000000)" fill-rule="nonzero">
            <path d="M13.32,15 C13.7733333,15 14.1666667,14.8333333 14.5,14.5 C14.8333333,14.1666667 15,13.7733333 15,13.32 L15,13.32 L15,1.68 C15,1.22666667 14.8333333,0.833333333 14.5,0.5 C14.1666667,0.166666667 13.7733333,0 13.32,0 L13.32,0 L1.68,0 C1.22666667,0 0.833333333,0.166666667 0.5,0.5 C0.166666667,0.833333333 0,1.22666667 0,1.68 L0,1.68 L0,13.32 C0,13.7733333 0.166666667,14.1666667 0.5,14.5 C0.833333333,14.8333333 1.22666667,15 1.68,15 L1.68,15 L13.32,15 Z" id="Path" fill="#586274"></path>
            <path d="M5.89404297,9.30322266 L5.89404297,8.48632812 L3.55615234,7.52587891 L5.89404297,6.44238281 L5.89404297,5.62207031 L2.5,7.31738281 L2.5,7.80615234 L5.89404297,9.30322266 Z M7.18945312,9.99707031 L9.05224609,5 L8.10546875,5 L6.24267578,9.99707031 L7.18945312,9.99707031 Z M9.38720703,9.30322266 L12.78125,7.80615234 L12.78125,7.31738281 L9.38720703,5.62207031 L9.38720703,6.44238281 L11.7250977,7.52587891 L9.38720703,8.48632812 L9.38720703,9.30322266 Z" id="&lt;/&gt;" fill="#FFFFFF"></path>
        </g>
    </g>
</svg>