<?xml version="1.0" encoding="UTF-8"?>
<svg width="20px" height="20px" viewBox="0 0 20 20" version="1.1" xmlns="http://www.w3.org/2000/svg" xmlns:xlink="http://www.w3.org/1999/xlink">
    <title>ic / file / IMG</title>
    <g id="ic-/-file-/-IMG" stroke="none" stroke-width="1" fill="none" fill-rule="evenodd">
        <path d="M15.82,17.5 C16.2733333,17.5 16.6666667,17.3333333 17,17 C17.3333333,16.6666667 17.5,16.2733333 17.5,15.82 L17.5,15.82 L17.5,4.18 C17.5,3.72666667 17.3333333,3.33333333 17,3 C16.6666667,2.66666667 16.2733333,2.5 15.82,2.5 L15.82,2.5 L4.18,2.5 C3.72666667,2.5 3.33333333,2.66666667 3,3 C2.66666667,3.33333333 2.5,3.72666667 2.5,4.18 L2.5,4.18 L2.5,15.82 C2.5,16.2733333 2.66666667,16.6666667 3,17 C3.33333333,17.3333333 3.72666667,17.5 4.18,17.5 L4.18,17.5 L15.82,17.5 Z M15.82,15 L4.18,15 L7.08,11.24 L9.18,13.74 L12.08,10 L15.82,15 Z" id="" fill="#586274" fill-rule="nonzero"></path>
    </g>
</svg>