<svg xmlns="http://www.w3.org/2000/svg" width="32" height="34" viewBox="0 0 32 34">
    <g fill="#BD5D48" fill-rule="evenodd">
        <path d="M20.71 6.924c1.21 0 2.2.934 2.2 2.097v5.707c0 1.163-.99 2.1-2.207 2.1H2.196c-1.218 0-2.196-.937-2.196-2.1V9.021c0-1.163.978-2.097 2.196-2.097zM5.054 9.237H3.747v3.689c0 .387-.166.58-.496.58-.348 0-.537-.208-.568-.625l-.005-.13h-1.29c0 .625.172 1.105.519 1.439.346.333.814.5 1.405.5.544 0 .97-.153 1.279-.458.274-.272.426-.646.456-1.123l.006-.183V9.237zm2.611-.084c-.371 0-.7.063-.989.188-.287.124-.512.304-.675.538-.163.234-.245.512-.245.832 0 .346.078.628.233.844.155.216.341.38.558.489.216.11.495.223.836.34.234.081.417.151.55.21.132.058.243.133.332.225.089.092.133.206.133.344 0 .152-.048.274-.145.366-.096.092-.229.138-.397.138-.193 0-.352-.059-.477-.176-.1-.094-.166-.215-.2-.364l-.018-.117H5.77c.036.53.25.942.642 1.237.392.295.89.443 1.497.443.402 0 .744-.071 1.027-.214.282-.143.496-.333.641-.573.145-.239.218-.501.218-.786 0-.352-.079-.637-.237-.856-.158-.218-.346-.385-.565-.5-.219-.114-.501-.23-.848-.347-.239-.087-.422-.158-.55-.214-.127-.056-.232-.129-.316-.218-.084-.089-.126-.197-.126-.324 0-.158.047-.278.141-.36.094-.08.218-.121.37-.121.179 0 .32.052.424.156.084.084.142.19.175.322l.02.102h1.413c-.046-.499-.246-.89-.6-1.176-.354-.285-.83-.428-1.432-.428zm5.422 0c-.504 0-.963.119-1.378.356-.415.236-.743.565-.985.985-.242.42-.363.894-.363 1.424 0 .53.12 1.005.363 1.428.242.422.57.752.985.989.415.236.874.355 1.378.355.504 0 .964-.119 1.379-.355.414-.237.743-.567.985-.99.241-.422.362-.898.362-1.427 0-.53-.12-1.004-.359-1.424-.239-.42-.566-.749-.98-.985-.416-.237-.878-.356-1.387-.356zm4.765.084h-1.306v5.4h1.306v-3.315l2.184 3.314h1.306V9.237h-1.306v3.345l-2.184-3.345zm-4.765 1.13c.428 0 .768.14 1.02.42.252.28.378.657.378 1.13 0 .474-.128.851-.382 1.131-.255.28-.593.42-1.016.42-.427 0-.767-.14-1.02-.42-.251-.28-.377-.657-.377-1.13 0-.479.126-.857.378-1.134.252-.278.592-.416 1.02-.416z"/>
        <path d="M30.535.56H7.705c-.486 0-.873.387-.873.876V5.61h2.614V2.747h19.21V23.29h-5.21c-.26 0-.506.1-.687.288-.178.178-.288.427-.288.687l.02 6.511H9.447V18.101H6.832v14.12c0 .475.387.872.873.872H24.73c.247 0 .486-.109.657-.297l5.796-6.494c.15-.158.219-.366.219-.575V1.436c.01-.49-.387-.876-.866-.876z"/>
    </g>
</svg>
