<svg xmlns="http://www.w3.org/2000/svg" width="45" height="45" viewBox="0 0 45 45">
    <g fill-rule="evenodd">
        <path fill-rule="nonzero" d="M32.326 37.158c.642 0 1.201-.238 1.677-.714s.714-1.034.714-1.676V9.766c0-.664-.238-1.229-.714-1.694-.476-.465-1.046-.697-1.71-.697h-20.52c-.641 0-1.2.232-1.676.697-.476.465-.714 1.03-.714 1.694v25.002c0 .642.238 1.2.714 1.676s1.035.714 1.676.714h20.553zm-15.04-20.387V9.766h4.017v6.94l-.3-.267-1.095-1.128c-.177-.155-.376-.233-.597-.233-.222 0-.41.078-.565.233l-1.46 1.46zm15.04 13.713h-20.52V9.766h3.089v9.197c0 .332.11.609.332.83.22.221.498.332.83.332.819 0 1.516-.277 2.091-.83l1.163-1.162 1.162 1.129c.553.553 1.217.84 1.992.863h.033c.332 0 .614-.11.847-.332.232-.221.348-.498.348-.83V9.766h8.633v20.718zm-.033 4.284h-20.52v-1.893h20.52v1.893z"/>
    </g>
</svg>
