<svg xmlns="http://www.w3.org/2000/svg" width="15" height="15" viewBox="0 0 15 15">
    <g fill="none" fill-rule="evenodd">
        <path d="M0 0H15V15H0z"/>
        <path fill="#000" fill-rule="nonzero" d="M9.855 14.77c.33 0 .64-.085.93-.255.29-.17.52-.4.69-.69.17-.29.255-.6.255-.93V2.875c0-.33-.085-.64-.255-.93-.17-.29-.4-.52-.69-.69-.29-.17-.6-.255-.93-.255h-4.98c-.33 0-.64.085-.93.255-.29.17-.52.4-.69.69-.17.29-.255.6-.255.93v10.02c0 .33.085.64.255.93.17.29.4.52.69.69.29.17.6.255.93.255h4.98zm.795-3.135H4.08v-8.76h6.57v8.76zM8.625 13.51h-2.52v-.615h2.52v.615z"/>
    </g>
</svg>
