<svg xmlns="http://www.w3.org/2000/svg" width="20" height="21" viewBox="0 0 20 21">
    <path fill="#DF4848" d="M11.875.5c.166 0 .326.064.444.181l3.75 3.75c.117.118.182.278.181.444v2.5H15V5.5h-2.5c-.69 0-1.25-.56-1.25-1.25v-2.5H1.875c-.345 0-.625.28-.625.625v16.25c0 .345.28.625.625.625H6.25v1.25H1.875C.839 20.5 0 19.66 0 18.625V2.375C0 1.34.84.5 1.875.5zm2.5 10c.69 0 1.25.56 1.25 1.25v3.75c0 .69-.56 1.25-1.25 1.25h-2.5c-.345 0-.625-.28-.625-.625v-5c0-.345.28-.625.625-.625zm5.625 0v1.25h-2.5V13H20v1.25h-2.5v2.5h-1.25v-5.625c0-.345.28-.625.625-.625H20zm-10.625 0c.69 0 1.25.56 1.25 1.25v1.875c0 .69-.56 1.25-1.25 1.25H7.5v1.875H6.25v-5.625c0-.345.28-.625.625-.625zm5 1.25H12.5v3.75h1.875v-3.75zm-5 0H7.5v1.875h1.875V11.75z"/>
</svg>
