<svg width="26" height="26" viewBox="0 0 26 26" fill="none" xmlns="http://www.w3.org/2000/svg">
<rect x="0.629883" y="0.481445" width="24.6914" height="24.6914" fill="#E05243"/>
<path fill-rule="evenodd" clip-rule="evenodd" d="M6.96541 21.8045C6.73447 21.8045 6.5127 21.7295 6.32095 21.5861C5.62729 21.065 5.53225 20.4856 5.5781 20.0912C5.69899 19.0041 7.04044 17.8677 9.57078 16.7113C10.5737 14.5128 11.5284 11.8032 12.0944 9.53969C11.4308 8.09069 10.7822 6.21148 11.2549 5.11097C11.4208 4.7233 11.6259 4.42649 12.0102 4.29977C12.1636 4.24808 12.5472 4.18555 12.6872 4.18555C13.0265 4.18555 13.3192 4.61908 13.5309 4.88587C13.7269 5.13682 14.1729 5.6679 13.28 9.42297C14.1787 11.2788 15.456 13.1714 16.6741 14.4636C17.5495 14.3077 18.3023 14.226 18.9143 14.226C19.9598 14.226 20.5917 14.4703 20.8485 14.9722C21.0636 15.3857 20.9761 15.871 20.5917 16.4112C20.2174 16.9323 19.7055 17.2066 19.1102 17.2066C18.299 17.2066 17.3544 16.6947 16.2989 15.6817C14.4072 16.0794 12.1995 16.783 10.4112 17.5642C9.85425 18.7464 9.31983 19.7011 8.8221 20.4014C8.14095 21.3585 7.54818 21.8045 6.96541 21.8045ZM8.74044 18.3855C7.31728 19.1867 6.73451 19.8445 6.69533 20.2155C6.68532 20.2772 6.66948 20.4373 6.98213 20.6782C7.07967 20.6457 7.65911 20.3814 8.74044 18.3855ZM17.8363 15.4216C18.3807 15.8418 18.5141 16.0535 18.8693 16.0535C19.0252 16.0535 19.4712 16.0468 19.6763 15.7567C19.7739 15.6166 19.8131 15.5291 19.8297 15.4799C19.748 15.4374 19.6371 15.3499 19.0444 15.3499C18.7092 15.3499 18.2857 15.3665 17.8363 15.4216ZM12.8541 11.0313C12.378 12.6829 11.7494 14.4637 11.0724 16.0761C12.4664 15.5359 13.9804 15.0631 15.4036 14.7313C14.5048 13.6858 13.6027 12.3794 12.8541 11.0313ZM12.4496 5.38781C12.3846 5.41032 11.5642 6.56002 12.5146 7.53381C13.1466 6.12399 12.4788 5.37781 12.4496 5.38781Z" fill="white"/>
</svg>
