<svg xmlns="http://www.w3.org/2000/svg" width="20" height="20" viewBox="0 0 20 20">
    <path fill="#586274" d="M9.98 16.68c1.027 0 1.993-.22 2.9-.66.867-.427 1.613-1.017 2.24-1.77.627-.753 1.06-1.61 1.3-2.57H14.7c-.333.987-.933 1.787-1.8 2.4s-1.84.92-2.92.92c-.907 0-1.743-.223-2.51-.67-.767-.447-1.373-1.053-1.82-1.82-.447-.767-.67-1.603-.67-2.51 0-.907.223-1.743.67-2.51.447-.767 1.053-1.373 1.82-1.82C8.237 5.223 9.073 5 9.98 5c.667 0 1.303.13 1.91.39s1.143.623 1.61 1.09l-2.7 2.7h5.86V3.32L14.7 5.28c-.613-.613-1.327-1.093-2.14-1.44-.813-.347-1.673-.52-2.58-.52-1.2 0-2.32.307-3.36.92-1 .587-1.793 1.387-2.38 2.4-.6 1.027-.9 2.147-.9 3.36s.3 2.333.9 3.36c.587 1.013 1.38 1.813 2.38 2.4 1.04.613 2.16.92 3.36.92z"/>
</svg>
