<svg xmlns="http://www.w3.org/2000/svg" width="16" height="17" viewBox="0 0 16 17">
    <g fill="none" fill-rule="evenodd">
        <path d="M0.5 0.625H15.5V15.625H0.5z" transform="translate(0 .875)"/>
        <path fill="#469DDD" fill-rule="nonzero" stroke="#469DDD" stroke-width=".2" d="M14.125 14.986c.237 0 .44-.084.608-.253.169-.168.253-.371.253-.608v-1.326c0-.255-.143-.463-.43-.622l-.431-.24-3.814-1.818c.3-.237.556-.522.765-.854.21-.333.378-.68.506-1.04s.219-.713.273-1.059c.055-.346.082-.652.082-.916V4.062c0-.364-.116-.729-.348-1.093-.233-.365-.533-.693-.902-.985-.37-.291-.789-.528-1.258-.71C8.959 1.09 8.483 1 8 1c-.483 0-.962.091-1.436.273-.474.183-.895.42-1.264.711-.37.292-.668.62-.896.985-.228.364-.341.729-.341 1.094V6.25c0 .237.027.526.082.868.054.342.148.693.28 1.053.132.36.303.713.513 1.06.21.346.469.642.779.888l-3.842 1.819-.027.015-.41.237c-.292.169-.438.372-.438.609v1.326c0 .237.084.44.253.608.169.169.376.253.622.253h12.25zm-12.25-.861v-.889c0-.182.048-.307.144-.376.095-.068.17-.111.225-.13l3.842-1.818c.137-.064.248-.157.335-.28.086-.123.143-.258.17-.403.019-.155-.001-.304-.06-.445-.06-.141-.149-.257-.267-.348-.456-.365-.791-.88-1.005-1.545-.214-.666-.322-1.213-.322-1.641V4.062c0-.227.09-.469.267-.724.178-.255.413-.492.704-.711.292-.219.62-.399.985-.54.364-.141.733-.212 1.107-.212.365 0 .731.07 1.1.212.37.141.698.319.985.533.287.214.522.449.704.704.182.255.274.502.274.739V6.25c0 .42-.098.964-.294 1.634-.196.67-.531 1.187-1.005 1.552-.119.09-.208.207-.267.348-.06.141-.08.29-.061.445.018.154.072.293.164.417.09.123.205.216.341.28l3.815 1.804c.009 0 .07.03.184.09.114.059.171.207.171.444v.847l-12.236.014z" transform="translate(0 .875)"/>
    </g>
</svg>
