<svg xmlns="http://www.w3.org/2000/svg" width="68" height="68" viewBox="0 0 68 68">
    <path fill="#9B9B9B" fill-rule="nonzero" d="M34 67.28c6.08 0 11.707-1.52 16.88-4.56 5.013-2.88 8.96-6.827 11.84-11.84 3.04-5.173 4.56-10.8 4.56-16.88 0-6.08-1.52-11.707-4.56-16.88-2.88-5.013-6.827-8.96-11.84-11.84C45.707 2.24 40.08.72 34 .72c-6.027 0-11.627 1.52-16.8 4.56-5.013 2.933-8.987 6.907-11.92 11.92C2.24 22.373.72 27.973.72 34c0 6.027 1.52 11.627 4.56 16.8 2.88 5.013 6.827 8.987 11.84 11.92 5.173 3.04 10.8 4.56 16.88 4.56zm0-6.56c-4.8 0-9.28-1.227-13.44-3.68-4.053-2.347-7.253-5.547-9.6-9.6C8.507 43.28 7.28 38.8 7.28 34c0-4.8 1.227-9.28 3.68-13.44 2.347-4.053 5.547-7.253 9.6-9.6C24.72 8.507 29.2 7.28 34 7.28c4.8 0 9.28 1.227 13.44 3.68 4.053 2.347 7.253 5.547 9.6 9.6 2.453 4.16 3.68 8.64 3.68 13.44 0 4.8-1.227 9.28-3.68 13.44-2.347 4.053-5.547 7.253-9.6 9.6-4.16 2.453-8.64 3.68-13.44 3.68zm-6.72-11.76l20-14.96-20-15.04v30z"/>
</svg>
