<?xml version="1.0" encoding="UTF-8"?>
<svg width="20px" height="20px" viewBox="0 0 20 20" version="1.1" xmlns="http://www.w3.org/2000/svg" xmlns:xlink="http://www.w3.org/1999/xlink">
    <title>ic / file / Video</title>
    <g id="ic-/-file-/-Video" stroke="none" stroke-width="1" fill="none" fill-rule="evenodd">
        <path d="M15.8918919,17.5 C16.4024024,17.5 16.8378378,17.3123123 17.1981982,16.9369369 C17.5585586,16.5615616 17.7387387,16.1186186 17.7387387,15.6081081 L17.7387387,4.34684685 C17.7387387,3.83633634 17.5585586,3.4009009 17.1981982,3.04054054 C16.8378378,2.68018018 16.4024024,2.5 15.8918919,2.5 L4.63063063,2.5 C4.12012012,2.5 3.67717718,2.68018018 3.3018018,3.04054054 C2.92642643,3.4009009 2.73873874,3.83633634 2.73873874,4.34684685 L2.73873874,15.6081081 C2.73873874,16.1186186 2.92642643,16.5615616 3.3018018,16.9369369 C3.67717718,17.3123123 4.12012012,17.5 4.63063063,17.5 L15.8918919,17.5 Z M8.36936937,14.1891892 L8.36936937,5.74324324 L14,9.97747748 L8.36936937,14.1891892 Z" id="" fill="#586274" fill-rule="nonzero"></path>
    </g>
</svg>