<svg xmlns="http://www.w3.org/2000/svg" width="25" height="16" viewBox="0 0 25 16">
    <defs>
        <filter id="prefix__a">
            <feColorMatrix in="SourceGraphic" values="0 0 0 0 1.000000 0 0 0 0 1.000000 0 0 0 0 1.000000 0 0 0 1.000000 0"/>
        </filter>
    </defs>
    <g fill="none" fill-rule="evenodd" filter="url(#prefix__a)" transform="translate(0 -1)">
        <path fill="#FFF" d="M12.2 1.024c5.382 0 10.02 3.172 12.15 7.75.066.142.066.304 0 .443-2.13 4.578-6.768 7.75-12.15 7.75-5.382 0-10.02-3.172-12.15-7.75-.066-.142-.066-.304 0-.443 2.13-4.578 6.768-7.75 12.15-7.75zm0 2.473c-3.037 0-5.5 2.46-5.5 5.5 0 3.036 2.46 5.5 5.5 5.5 3.036 0 5.5-2.464 5.5-5.5 0-3.037-2.461-5.5-5.5-5.5zm0 1.976c1.944 0 3.52 1.577 3.52 3.521 0 1.945-1.576 3.52-3.52 3.52s-3.52-1.575-3.52-3.52c0-1.944 1.576-3.52 3.52-3.52z"/>
    </g>
</svg>
